<?xml version="1.0" encoding="UTF-8" standalone="no"?>
<svg width="132px" height="17px" viewBox="0 0 132 17" version="1.1" xmlns="http://www.w3.org/2000/svg" xmlns:xlink="http://www.w3.org/1999/xlink">
    <!-- Generator: sketchtool 3.6.1 (26313) - http://www.bohemiancoding.com/sketch -->
    <title>CodersTrust</title>
    <desc>Created with sketchtool.</desc>
    <defs></defs>
    <g id="new-new" stroke="none" stroke-width="1" fill="none" fill-rule="evenodd" fill-opacity="0.8">
        <g id="dashboard_profile_learning_block_expanded@2x" transform="translate(-39.000000, -22.000000)" fill="#000000">
            <g id="header">
                <path d="M50.631,24.182 C50.631,23.93 50.505,23.783 50.211,23.678 C49.245,23.321 47.691,23.048 46.137,23.048 C41.223,23.048 39.627,25.4 39.627,30.02 L39.627,31.28 C39.627,35.9 41.328,38.252 46.242,38.252 C47.901,38.252 49.434,38.021 50.421,37.601 C50.736,37.475 50.841,37.37 50.841,37.097 L50.841,34.913 C50.841,34.703 50.694,34.535 50.484,34.556 C49.644,34.682 48.342,34.766 47.334,34.766 C45.045,34.766 44.247,33.821 44.247,31.049 L44.247,30.251 C44.247,27.479 44.898,26.534 47.271,26.534 C47.292,27.248 47.376,28.046 47.46,28.529 C47.502,28.739 47.628,28.865 47.859,28.865 L50.169,28.865 C50.421,28.865 50.526,28.781 50.547,28.55 C50.61,27.836 50.631,26.639 50.631,25.358 L50.631,24.182 Z M52.248,32.981 C52.248,36.425 54.159,38.168 57.666,38.168 C61.173,38.168 63.084,36.425 63.084,32.981 L63.084,32.141 C63.084,28.697 61.173,26.954 57.666,26.954 C54.159,26.954 52.248,28.697 52.248,32.141 L52.248,32.981 Z M58.758,32.939 C58.758,34.451 58.548,34.934 57.666,34.934 C56.784,34.934 56.574,34.451 56.574,32.939 L56.574,32.183 C56.574,30.713 56.784,30.188 57.666,30.188 C58.548,30.188 58.758,30.713 58.758,32.183 L58.758,32.939 Z M76.65,35.249 C76.65,35.06 76.524,34.934 76.335,34.934 L75.642,34.934 C75.18,34.934 75.033,34.703 75.033,34.136 L75.033,23.027 C75.033,22.817 74.886,22.67 74.676,22.67 L69.405,22.67 C69.216,22.67 69.09,22.796 69.09,22.985 L69.09,25.232 C69.09,25.463 69.216,25.589 69.426,25.631 C69.783,25.715 70.245,25.778 70.707,25.799 L70.707,27.248 C70.224,27.059 69.258,26.954 68.67,26.954 C65.709,26.954 64.176,28.991 64.176,31.994 L64.176,32.75 C64.176,36.236 66.318,38.168 69.153,38.168 C70.14,38.168 71.148,37.853 71.82,37.328 C72.45,37.874 73.353,38.168 74.424,38.168 C75.201,38.168 75.873,38.084 76.356,37.874 C76.566,37.79 76.65,37.664 76.65,37.412 L76.65,35.249 Z M69.93,34.934 C68.775,34.934 68.502,33.947 68.502,32.582 L68.502,32.162 C68.502,30.755 68.943,30.188 70.014,30.188 C70.224,30.188 70.476,30.209 70.707,30.251 L70.707,34.871 C70.434,34.913 70.161,34.934 69.93,34.934 L69.93,34.934 Z M87.948,31.616 C87.948,28.718 86.247,26.954 82.992,26.954 C78.855,26.954 77.406,29.138 77.406,32.141 L77.406,32.981 C77.406,36.11 78.876,38.168 83.202,38.168 C84.483,38.168 85.617,38.021 86.73,37.706 C87.003,37.622 87.129,37.454 87.129,37.16 L87.129,35.459 C87.129,35.228 87.003,35.123 86.772,35.165 C85.89,35.291 85.155,35.354 84.21,35.354 C82.677,35.354 81.963,34.976 81.711,33.905 L85.197,33.905 C87.087,33.905 87.948,33.149 87.948,31.616 L87.948,31.616 Z M81.606,31.658 C81.648,30.566 81.963,29.81 82.845,29.81 C83.622,29.81 83.979,30.314 83.979,31.07 C83.979,31.448 83.811,31.658 83.391,31.658 L81.606,31.658 Z M97.062,26.954 C95.886,26.954 94.752,27.248 93.891,27.773 C93.261,27.269 92.379,26.954 91.245,26.954 C90.468,26.954 89.796,27.038 89.313,27.248 C89.103,27.332 89.019,27.458 89.019,27.71 L89.019,29.873 C89.019,30.062 89.145,30.188 89.334,30.188 L90.027,30.188 C90.489,30.188 90.636,30.419 90.636,30.986 L90.636,34.787 C90.174,34.829 89.712,34.892 89.355,34.955 C89.145,34.997 89.019,35.123 89.019,35.354 L89.019,37.685 C89.019,37.874 89.145,38 89.334,38 L96.348,38 C96.537,38 96.663,37.874 96.663,37.685 L96.663,35.354 C96.663,35.123 96.537,34.997 96.327,34.955 C95.928,34.892 95.445,34.808 94.962,34.787 L94.962,30.377 C95.214,30.335 95.529,30.293 95.823,30.293 C95.886,30.818 95.949,31.322 96.012,31.616 C96.054,31.826 96.18,31.952 96.411,31.952 L98.721,31.952 C98.973,31.952 99.078,31.868 99.099,31.637 C99.162,30.755 99.183,29.516 99.183,28.445 L99.183,27.626 C99.183,27.29 99.078,27.185 98.721,27.122 C98.196,27.017 97.545,26.954 97.062,26.954 L97.062,26.954 Z M100.569,37.181 C100.569,37.412 100.716,37.58 100.968,37.664 C101.997,37.979 103.698,38.168 105.441,38.168 C108.486,38.168 110.082,36.929 110.082,34.871 C110.082,33.317 109.179,32.519 107.226,31.7 L105.609,31.028 C105.126,30.839 104.895,30.692 104.895,30.398 C104.895,30.062 105.189,29.936 106.029,29.936 L106.071,29.936 L106.197,30.566 C106.239,30.776 106.365,30.902 106.596,30.902 L108.906,30.902 C109.158,30.902 109.263,30.818 109.284,30.587 C109.347,29.894 109.368,28.886 109.368,28.025 L109.368,27.92 C109.368,27.689 109.221,27.521 108.969,27.437 C108.024,27.122 106.491,26.954 105.21,26.954 C102.438,26.954 100.569,27.878 100.569,30.293 C100.569,31.889 101.514,32.771 103.194,33.443 L104.958,34.157 C105.504,34.367 105.756,34.535 105.756,34.766 C105.756,35.081 105.42,35.186 104.559,35.186 L103.845,35.186 C103.824,34.976 103.782,34.766 103.74,34.556 C103.698,34.346 103.572,34.22 103.341,34.22 L101.031,34.22 C100.779,34.22 100.674,34.304 100.653,34.535 C100.59,35.228 100.569,36.215 100.569,37.076 L100.569,37.181 Z M124.047,23.72 C124.047,23.405 123.9,23.3 123.606,23.3 L111.552,23.3 C111.258,23.3 111.111,23.405 111.111,23.72 L111.111,25.358 C111.111,26.639 111.132,27.836 111.195,28.55 C111.216,28.781 111.321,28.865 111.573,28.865 L113.883,28.865 C114.114,28.865 114.24,28.739 114.282,28.529 C114.345,28.109 114.429,27.437 114.45,26.786 L115.269,26.786 L115.269,34.787 C114.807,34.829 114.345,34.892 113.988,34.955 C113.778,34.997 113.652,35.123 113.652,35.354 L113.652,37.685 C113.652,37.874 113.778,38 113.967,38 L121.191,38 C121.38,38 121.506,37.874 121.506,37.685 L121.506,35.354 C121.506,35.123 121.38,34.997 121.17,34.955 C120.792,34.892 120.33,34.829 119.889,34.787 L119.889,26.786 L120.687,26.786 C120.729,27.437 120.792,28.109 120.876,28.529 C120.918,28.739 121.044,28.865 121.275,28.865 L123.585,28.865 C123.837,28.865 123.942,28.781 123.963,28.55 C124.026,27.836 124.047,26.639 124.047,25.358 L124.047,23.72 Z M133.203,26.954 C132.027,26.954 130.893,27.248 130.032,27.773 C129.402,27.269 128.52,26.954 127.386,26.954 C126.609,26.954 125.937,27.038 125.454,27.248 C125.244,27.332 125.16,27.458 125.16,27.71 L125.16,29.873 C125.16,30.062 125.286,30.188 125.475,30.188 L126.168,30.188 C126.63,30.188 126.777,30.419 126.777,30.986 L126.777,34.787 C126.315,34.829 125.853,34.892 125.496,34.955 C125.286,34.997 125.16,35.123 125.16,35.354 L125.16,37.685 C125.16,37.874 125.286,38 125.475,38 L132.489,38 C132.678,38 132.804,37.874 132.804,37.685 L132.804,35.354 C132.804,35.123 132.678,34.997 132.468,34.955 C132.069,34.892 131.586,34.808 131.103,34.787 L131.103,30.377 C131.355,30.335 131.67,30.293 131.964,30.293 C132.027,30.818 132.09,31.322 132.153,31.616 C132.195,31.826 132.321,31.952 132.552,31.952 L134.862,31.952 C135.114,31.952 135.219,31.868 135.24,31.637 C135.303,30.755 135.324,29.516 135.324,28.445 L135.324,27.626 C135.324,27.29 135.219,27.185 134.862,27.122 C134.337,27.017 133.686,26.954 133.203,26.954 L133.203,26.954 Z M148.911,27.563 C148.911,27.269 148.806,27.122 148.491,27.122 L143.409,27.122 C143.22,27.122 143.094,27.248 143.094,27.437 L143.094,29.768 C143.094,29.999 143.22,30.125 143.43,30.167 C143.766,30.23 144.165,30.293 144.585,30.335 L144.585,34.85 C144.291,34.913 143.934,34.934 143.556,34.934 C142.632,34.934 142.212,34.577 142.212,33.527 L142.212,27.563 C142.212,27.269 142.107,27.122 141.792,27.122 L136.584,27.122 C136.395,27.122 136.269,27.248 136.269,27.437 L136.269,29.768 C136.269,29.999 136.395,30.125 136.605,30.167 C136.962,30.251 137.424,30.314 137.886,30.335 L137.886,33.464 C137.886,36.698 139.314,38.168 142.485,38.168 C143.661,38.168 144.816,37.895 145.656,37.349 C146.286,37.853 147.168,38.168 148.302,38.168 C149.079,38.168 149.751,38.084 150.234,37.874 C150.444,37.79 150.528,37.664 150.528,37.412 L150.528,35.249 C150.528,35.06 150.402,34.934 150.213,34.934 L149.52,34.934 C149.058,34.934 148.911,34.703 148.911,34.136 L148.911,27.563 Z M151.494,37.181 C151.494,37.412 151.641,37.58 151.893,37.664 C152.922,37.979 154.623,38.168 156.366,38.168 C159.411,38.168 161.007,36.929 161.007,34.871 C161.007,33.317 160.104,32.519 158.151,31.7 L156.534,31.028 C156.051,30.839 155.82,30.692 155.82,30.398 C155.82,30.062 156.114,29.936 156.954,29.936 L156.996,29.936 L157.122,30.566 C157.164,30.776 157.29,30.902 157.521,30.902 L159.831,30.902 C160.083,30.902 160.188,30.818 160.209,30.587 C160.272,29.894 160.293,28.886 160.293,28.025 L160.293,27.92 C160.293,27.689 160.146,27.521 159.894,27.437 C158.949,27.122 157.416,26.954 156.135,26.954 C153.363,26.954 151.494,27.878 151.494,30.293 C151.494,31.889 152.439,32.771 154.119,33.443 L155.883,34.157 C156.429,34.367 156.681,34.535 156.681,34.766 C156.681,35.081 156.345,35.186 155.484,35.186 L154.77,35.186 C154.749,34.976 154.707,34.766 154.665,34.556 C154.623,34.346 154.497,34.22 154.266,34.22 L151.956,34.22 C151.704,34.22 151.599,34.304 151.578,34.535 C151.515,35.228 151.494,36.215 151.494,37.076 L151.494,37.181 Z M163.569,30.356 L163.569,34.052 C163.569,36.593 164.64,38.168 168.231,38.168 C168.945,38.168 169.848,38.021 170.457,37.769 C170.709,37.664 170.856,37.517 170.856,37.286 L170.856,35.144 C170.856,34.913 170.73,34.829 170.499,34.85 C170.079,34.892 169.638,34.934 169.302,34.934 C168.105,34.934 167.895,34.43 167.895,33.506 L167.895,30.356 L170.352,30.356 C170.646,30.356 170.793,30.251 170.793,29.936 L170.793,27.542 C170.793,27.227 170.646,27.122 170.352,27.122 L167.895,27.122 L167.895,24.665 C167.895,24.371 167.79,24.224 167.475,24.224 L163.989,24.224 C163.674,24.224 163.569,24.371 163.569,24.665 L163.569,27.122 L162.12,27.122 C161.826,27.122 161.679,27.227 161.679,27.542 L161.679,29.936 C161.679,30.251 161.826,30.356 162.12,30.356 L163.569,30.356 Z" id="CodersTrust"></path>
            </g>
        </g>
    </g>
</svg>